<?xml version="1.0" encoding="utf-8"?>
<!-- Generator: Adobe Illustrator 24.0.0, SVG Export Plug-In . SVG Version: 6.00 Build 0)  -->
<svg version="1.1" id="Capa_1" xmlns="http://www.w3.org/2000/svg" xmlns:xlink="http://www.w3.org/1999/xlink" x="0px" y="0px"
	 viewBox="0 0 563.3 76.3" style="enable-background:new 0 0 563.3 76.3;" xml:space="preserve">
<style type="text/css">
	.st0{fill:#424A60;}
	.st1{fill:#FFFFFF;}
	.st2{fill:#C7CAC7;}
	.st3{fill:#ED7161;}
	.st4{enable-background:new    ;}
</style>
<circle class="st0" cx="37.5" cy="36.1" r="29"/>
<path class="st1" d="M13.3,43.5c0.1,0.5,0.7,0.9,1.2,0.7l2.3-0.6c0.4,1.2,0.8,2.3,1.4,3.4l-2,1.2c-0.5,0.3-0.6,0.9-0.4,1.4
	c0.3,0.5,0.9,0.6,1.4,0.4l2-1.2c0.7,1,1.4,2,2.2,2.9l-1.7,1.7c-0.4,0.4-0.4,1,0,1.4s1,0.4,1.4,0l1.7-1.7c0.9,0.8,1.9,1.6,2.9,2.2
	l-1.2,2c-0.3,0.5-0.1,1.1,0.4,1.4c0.5,0.3,1.1,0.1,1.4-0.4l1.2-2c1.1,0.6,2.2,1,3.4,1.4L30.3,60c-0.1,0.5,0.2,1.1,0.7,1.2
	c0.5,0.1,1.1-0.2,1.2-0.7l0.6-2.3c1.2,0.3,2.4,0.4,3.6,0.5v2.4c0,0.6,0.4,1,1,1s1-0.4,1-1v-2.4c1.2-0.1,2.4-0.2,3.6-0.5l0.6,2.3
	c0.1,0.5,0.7,0.9,1.2,0.7c0.5-0.1,0.9-0.7,0.7-1.2l-0.6-2.3c1.2-0.4,2.3-0.8,3.4-1.4l1.2,2c0.3,0.5,0.9,0.6,1.4,0.4
	c0.5-0.3,0.6-0.9,0.4-1.4l-1.2-2c1-0.7,2-1.4,2.9-2.2l1.7,1.7c0.4,0.4,1,0.4,1.4,0s0.4-1,0-1.4l-1.7-1.7c0.8-0.9,1.6-1.9,2.2-2.9
	l2,1.2c0.5,0.3,1.1,0.1,1.4-0.4c0.3-0.5,0.1-1.1-0.4-1.4l-2-1.2c0.6-1.1,1-2.2,1.4-3.4l2.3,0.6c0.5,0.1,1.1-0.2,1.2-0.7
	s-0.2-1.1-0.7-1.2l-2.3-0.6c0.3-1.5,0.5-3.1,0.5-4.7c0-0.6-0.4-1-1-1l0,0c-0.6,0-1,0.5-1,1c0,5-1.9,9.7-5.1,13.3l-7.6-7.6
	c0.8-1,1.3-2.1,1.7-3.3c0.6-2.3,0.3-4.7-0.9-6.8c-1.6-2.8-4.6-4.5-7.8-4.5c-1.6,0-3.1,0.4-4.5,1.2c-2.1,1.2-3.6,3.1-4.2,5.5
	c-0.6,2.3-0.3,4.7,0.9,6.8c0.2,0.4,0.5,0.8,0.8,1.1l-7.6,7.6c-0.9-1-1.7-2.1-2.4-3.3c-1.7-3-2.6-6.4-2.6-9.9c0-0.6-0.4-1-1-1l0,0
	c-0.5,0-1,0.4-1,1c0,1.6,0.2,3.2,0.5,4.7L14,42.3C13.5,42.4,13.2,43,13.3,43.5z M37.5,46.1c1.6,0,3.1-0.4,4.5-1.2
	c0.4-0.2,0.8-0.5,1.1-0.8l7.6,7.6c-1,0.9-2.1,1.7-3.3,2.4c-7.6,4.4-16.9,3.1-23-2.4l7.6-7.6C33.4,45.3,35.4,46.1,37.5,46.1z
	 M30.7,35.2c0.5-1.8,1.6-3.3,3.3-4.2c1.1-0.6,2.3-0.9,3.5-0.9c2.5,0,4.8,1.3,6.1,3.5c0.9,1.6,1.2,3.5,0.7,5.3s-1.6,3.3-3.3,4.2
	c-1.1,0.6-2.3,0.9-3.5,0.9c-2.5,0-4.8-1.3-6.1-3.5C30.5,38.9,30.2,37.1,30.7,35.2z"/>
<path class="st2" d="M40.5,18.6h2.2l0,0c0.1,1.7,0.6,3.4,1.3,5l0,0l-1.9,1.1c-0.5,0.3-0.6,0.9-0.4,1.4c0.3,0.5,0.9,0.6,1.4,0.4
	l1.9-1.1l0,0c1,1.5,2.3,2.7,3.7,3.7l0,0L47.6,31c-0.3,0.5-0.1,1.1,0.4,1.4c0.5,0.3,1.1,0.1,1.4-0.4l1.1-1.9l0,0
	c1.6,0.8,3.3,1.2,5,1.3l0,0v2.2c0,0.6,0.4,1,1,1s1-0.4,1-1v-2.2l0,0c2-0.1,4-0.7,5.9-1.8c0.7-0.4,1.4-0.9,2-1.4
	c-0.8-3-2.2-5.8-3.9-8.3c-0.5,1-1.2,1.9-2.3,2.5c-2.6,1.5-6,0.6-7.5-2s-0.6-6,2-7.5c0.2-0.1,0.4-0.2,0.6-0.3
	c-2.5-1.8-5.2-3.2-8.2-4.1c-2,2.3-3.2,5.2-3.4,8.2l0,0h-2.2c-0.6,0-1,0.4-1,1S39.9,18.6,40.5,18.6z"/>
<path class="st3" d="M17.5,31.8L17.5,31.8v2.3c0,0.6,0.4,1,1,1s1-0.4,1-1v-2.2l0,0c1.7-0.1,3.4-0.6,5-1.3l0,0l1.1,1.9
	c0.3,0.5,0.9,0.6,1.4,0.4c0.5-0.3,0.6-0.9,0.4-1.4l-1.1-1.9l0,0c1.5-1,2.7-2.3,3.7-3.7l0,0l1.9,1.1c0.5,0.3,1.1,0.1,1.4-0.4
	s0.1-1.1-0.4-1.4L31,24.1l0,0c0.8-1.6,1.2-3.3,1.3-5l0,0h2.2c0.6,0,1-0.4,1-1s-0.4-1-1-1h-2.2l0,0c-0.1-2-0.7-4-1.8-5.9
	c-0.6-1-1.3-1.9-2-2.7c-3,1-5.8,2.5-8.3,4.3c1.3,0.4,2.4,1.3,3.1,2.5c1.5,2.6,0.6,6-2,7.5s-6,0.6-7.5-2c-0.1-0.3-0.3-0.5-0.4-0.8
	c-1.7,2.6-3,5.4-3.8,8.5C11.7,30.4,14.6,31.6,17.5,31.8z"/>
<g class="st4">
	<path class="st3" d="M79.9,41.2c0-8.8,6.7-14.7,15.2-14.7c7.1,0,10.8,3.9,12.6,7.6l-6.3,3c-0.9-2.3-3.4-4.1-6.3-4.1
		c-4.4,0-7.7,3.6-7.7,8.2c0,4.7,3.3,8.2,7.7,8.2c2.9,0,5.4-1.9,6.3-4.1l6.3,3c-1.8,3.7-5.6,7.6-12.6,7.6
		C86.5,55.9,79.9,49.9,79.9,41.2z"/>
	<path class="st3" d="M109.3,45.1c0-5.8,4.2-10.8,11.2-10.8c7.1,0,11.3,5,11.3,10.8s-4.2,10.8-11.3,10.8
		C113.5,55.9,109.3,50.9,109.3,45.1z M125.1,45.1c0-2.7-1.6-5-4.5-5c-2.9,0-4.4,2.3-4.4,5c0,2.8,1.6,5,4.4,5
		C123.4,50.1,125.1,47.8,125.1,45.1z"/>
	<path class="st3" d="M149.2,43.5c0-2.5-1.3-3.4-3.4-3.4c-2,0-3.2,1.1-4,2v13.3h-6.6V34.8h6.6v2.5c1.2-1.5,3.7-3,7.1-3
		c4.7,0,6.8,2.7,6.8,6.5v14.6h-6.6V43.5z"/>
	<path class="st3" d="M161.9,49.8v-9.3h-3.4v-5.7h3.4v-5.6h6.5v5.6h4.2v5.7h-4.2V48c0,1.2,0.7,2.1,1.8,2.1c0.7,0,1.5-0.3,1.7-0.5
		l1.3,5c-0.8,0.8-2.4,1.4-4.9,1.4C164.2,55.9,161.9,53.8,161.9,49.8z"/>
	<path class="st3" d="M185.5,34.3c6.1,0,10.5,4.5,10.5,11.5v1.4h-14.7c0.4,1.9,2.2,3.7,5.3,3.7c1.8,0,3.9-0.7,5-1.8l2.8,4.1
		c-2,1.8-5.5,2.7-8.6,2.7c-6.4,0-11.3-4.1-11.3-10.8C174.6,39.1,179.1,34.3,185.5,34.3z M181.3,42.9h8.5c-0.2-1.5-1.2-3.5-4.3-3.5
		C182.7,39.3,181.6,41.4,181.3,42.9z"/>
	<path class="st3" d="M213.3,43.5c0-2.5-1.3-3.4-3.4-3.4c-2,0-3.2,1.1-4,2v13.3h-6.6V34.8h6.6v2.5c1.2-1.5,3.7-3,7.1-3
		c4.7,0,6.8,2.7,6.8,6.5v14.6h-6.6V43.5z"/>
	<path class="st3" d="M226,49.8v-9.3h-3.4v-5.7h3.4v-5.6h6.5v5.6h4.2v5.7h-4.2V48c0,1.2,0.7,2.1,1.8,2.1c0.7,0,1.5-0.3,1.7-0.5
		l1.3,5c-0.8,0.8-2.4,1.4-4.9,1.4C228.3,55.9,226,53.8,226,49.8z"/>
</g>
<g class="st4">
	<path class="st0" d="M258.4,51.1h-11.8l-1.5,4.3h-8l10.7-28.5h9.2l10.8,28.5h-8L258.4,51.1z M248.5,44.9h8l-4-11.6L248.5,44.9z"/>
	<path class="st0" d="M272.1,56c1.6,1.7,3.9,2.4,6.3,2.4c2.2,0,5.3-0.9,5.3-4.7v-1.6c-1.7,2-3.8,3-6.1,3c-5,0-9.1-3.5-9.1-10.4
		c0-6.8,3.9-10.4,9.1-10.4c2.3,0,4.4,0.9,6.1,2.9v-2.4h6.5v18.8c0,8.4-6.7,10.2-11.8,10.2c-3.5,0-6.5-0.9-9.1-3.1L272.1,56z
		 M283.6,41.9c-0.8-1.1-2.6-1.8-3.9-1.8c-2.6,0-4.5,1.6-4.5,4.6c0,3,1.9,4.6,4.5,4.6c1.4,0,3.1-0.7,3.9-1.8V41.9z"/>
	<path class="st0" d="M297.3,56c1.6,1.7,3.9,2.4,6.3,2.4c2.2,0,5.3-0.9,5.3-4.7v-1.6c-1.7,2-3.8,3-6.1,3c-5,0-9.1-3.5-9.1-10.4
		c0-6.8,3.9-10.4,9.1-10.4c2.3,0,4.4,0.9,6.1,2.9v-2.4h6.5v18.8c0,8.4-6.7,10.2-11.8,10.2c-3.5,0-6.5-0.9-9.1-3.1L297.3,56z
		 M308.8,41.9c-0.8-1.1-2.6-1.8-3.9-1.8c-2.6,0-4.5,1.6-4.5,4.6c0,3,1.9,4.6,4.5,4.6c1.4,0,3.1-0.7,3.9-1.8V41.9z"/>
	<path class="st0" d="M320.2,34.8h6.6v2.6c1.4-1.7,4-3.1,6.4-3.1v6.4c-0.4-0.1-0.9-0.2-1.6-0.2c-1.7,0-4,0.7-4.8,1.9v13.1h-6.6V34.8
		z"/>
	<path class="st0" d="M345.8,34.3c6.1,0,10.5,4.5,10.5,11.5v1.4h-14.7c0.4,1.9,2.2,3.7,5.3,3.7c1.8,0,3.9-0.7,5-1.8l2.8,4.1
		c-2,1.8-5.5,2.7-8.6,2.7c-6.4,0-11.3-4.1-11.3-10.8C334.8,39.1,339.3,34.3,345.8,34.3z M341.5,42.9h8.5c-0.2-1.5-1.2-3.5-4.3-3.5
		C342.9,39.3,341.8,41.4,341.5,42.9z"/>
	<path class="st0" d="M361.9,56c1.6,1.7,3.9,2.4,6.3,2.4c2.2,0,5.3-0.9,5.3-4.7v-1.6c-1.7,2-3.8,3-6.1,3c-5,0-9.1-3.5-9.1-10.4
		c0-6.8,3.9-10.4,9.1-10.4c2.3,0,4.4,0.9,6.1,2.9v-2.4h6.5v18.8c0,8.4-6.7,10.2-11.8,10.2c-3.5,0-6.5-0.9-9.1-3.1L361.9,56z
		 M373.4,41.9c-0.8-1.1-2.6-1.8-3.9-1.8c-2.6,0-4.5,1.6-4.5,4.6c0,3,1.9,4.6,4.5,4.6c1.4,0,3.1-0.7,3.9-1.8V41.9z"/>
	<path class="st0" d="M396.9,53.3c-1.3,1.5-3.8,2.6-6.4,2.6c-3.2,0-7.1-2.1-7.1-6.8c0-5,3.9-6.5,7.1-6.5c2.7,0,5.2,0.9,6.4,2.4v-2.6
		c0-1.8-1.5-3-4.2-3c-2,0-4.2,0.8-5.8,2.2l-2.3-4.1c2.6-2.3,6.2-3.2,9.3-3.2c5,0,9.6,1.8,9.6,8.2v12.9h-6.6V53.3z M396.9,48.3
		c-0.7-0.9-2.2-1.5-3.7-1.5c-1.8,0-3.3,0.8-3.3,2.4s1.5,2.4,3.3,2.4c1.5,0,3-0.5,3.7-1.5V48.3z"/>
	<path class="st0" d="M409.6,49.8v-9.3h-3.4v-5.7h3.4v-5.6h6.5v5.6h4.2v5.7h-4.2V48c0,1.2,0.7,2.1,1.8,2.1c0.7,0,1.5-0.3,1.7-0.5
		l1.3,5c-0.8,0.8-2.4,1.4-4.9,1.4C411.9,55.9,409.6,53.8,409.6,49.8z"/>
	<path class="st0" d="M422.3,45.1c0-5.8,4.2-10.8,11.2-10.8c7.1,0,11.3,5,11.3,10.8s-4.2,10.8-11.3,10.8
		C426.5,55.9,422.3,50.9,422.3,45.1z M438,45.1c0-2.7-1.6-5-4.5-5c-2.9,0-4.4,2.3-4.4,5c0,2.8,1.6,5,4.4,5
		C436.4,50.1,438,47.8,438,45.1z"/>
	<path class="st0" d="M448.2,34.8h6.6v2.6c1.4-1.7,4-3.1,6.4-3.1v6.4c-0.4-0.1-0.9-0.2-1.6-0.2c-1.7,0-4,0.7-4.8,1.9v13.1h-6.6V34.8
		z"/>
</g>
<g class="st4">
	<path class="st3" d="M467.6,47.9c2.2,0,4,1.8,4,4s-1.8,4-4,4c-2.2,0-4-1.8-4-4S465.4,47.9,467.6,47.9z"/>
	<path class="st3" d="M485.6,34.3c4.4,0,7.2,2,8.5,3.8l-4.3,4c-0.8-1.2-2.1-2-3.9-2c-2.7,0-4.8,1.9-4.8,5s2.1,5,4.8,5
		c1.8,0,3.1-0.9,3.9-2l4.3,4c-1.2,1.8-4,3.8-8.5,3.8c-6.4,0-11.3-4.4-11.3-10.8C474.3,38.6,479.1,34.3,485.6,34.3z"/>
	<path class="st3" d="M495.7,45.1c0-5.8,4.2-10.8,11.2-10.8c7.1,0,11.3,5,11.3,10.8s-4.2,10.8-11.3,10.8
		C499.9,55.9,495.7,50.9,495.7,45.1z M511.4,45.1c0-2.7-1.6-5-4.5-5c-2.9,0-4.4,2.3-4.4,5c0,2.8,1.6,5,4.4,5
		C509.8,50.1,511.4,47.8,511.4,45.1z"/>
	<path class="st3" d="M547.6,42.8c0-1.6-0.8-2.8-2.7-2.8c-1.8,0-3.1,1.2-3.7,2v13.3h-6.6V42.8c0-1.6-0.7-2.8-2.7-2.8
		c-1.8,0-3,1.2-3.7,2v13.3h-6.6V34.8h6.6v2.5c0.9-1.2,3.5-3,6.8-3c2.9,0,5,1.2,5.8,3.7c1.2-1.8,3.9-3.7,7.1-3.7c3.8,0,6.2,2,6.2,6.2
		v14.9h-6.5V42.8z"/>
</g>
</svg>
