<?xml version="1.0" encoding="utf-8"?>
<!-- Generator: Adobe Illustrator 23.1.0, SVG Export Plug-In . SVG Version: 6.00 Build 0)  -->
<svg version="1.1" id="Capa_1" xmlns="http://www.w3.org/2000/svg" xmlns:xlink="http://www.w3.org/1999/xlink" x="0px" y="0px"
	 viewBox="0 0 563.3 76.3" style="enable-background:new 0 0 563.3 76.3;" xml:space="preserve">
<style type="text/css">
	.st0{fill:#424A60;}
	.st1{fill:#FFFFFF;}
	.st2{fill:#C7CAC7;}
	.st3{fill:#ED7161;}
	.st4{font-family:'ProximaNova-Extrabld';}
	.st5{font-size:42.6869px;}
</style>
<circle class="st0" cx="37.5" cy="36.1" r="29"/>
<path class="st1" d="M13.3,43.5c0.1,0.5,0.7,0.9,1.2,0.7l2.3-0.6c0.4,1.2,0.8,2.3,1.4,3.4l-2,1.2c-0.5,0.3-0.6,0.9-0.4,1.4
	c0.3,0.5,0.9,0.6,1.4,0.4l2-1.2c0.7,1,1.4,2,2.2,2.9l-1.7,1.7c-0.4,0.4-0.4,1,0,1.4s1,0.4,1.4,0l1.7-1.7c0.9,0.8,1.9,1.6,2.9,2.2
	l-1.2,2c-0.3,0.5-0.1,1.1,0.4,1.4c0.5,0.3,1.1,0.1,1.4-0.4l1.2-2c1.1,0.6,2.2,1,3.4,1.4L30.3,60c-0.1,0.5,0.2,1.1,0.7,1.2
	c0.5,0.1,1.1-0.2,1.2-0.7l0.6-2.3c1.2,0.3,2.4,0.4,3.6,0.5v2.4c0,0.6,0.4,1,1,1c0.6,0,1-0.4,1-1v-2.4c1.2-0.1,2.4-0.2,3.6-0.5
	l0.6,2.3c0.1,0.5,0.7,0.9,1.2,0.7c0.5-0.1,0.9-0.7,0.7-1.2l-0.6-2.3c1.2-0.4,2.3-0.8,3.4-1.4l1.2,2c0.3,0.5,0.9,0.6,1.4,0.4
	c0.5-0.3,0.6-0.9,0.4-1.4l-1.2-2c1-0.7,2-1.4,2.9-2.2l1.7,1.7c0.4,0.4,1,0.4,1.4,0c0.4-0.4,0.4-1,0-1.4l-1.7-1.7
	c0.8-0.9,1.6-1.9,2.2-2.9l2,1.2c0.5,0.3,1.1,0.1,1.4-0.4c0.3-0.5,0.1-1.1-0.4-1.4l-2-1.2c0.6-1.1,1-2.2,1.4-3.4l2.3,0.6
	c0.5,0.1,1.1-0.2,1.2-0.7s-0.2-1.1-0.7-1.2l-2.3-0.6c0.3-1.5,0.5-3.1,0.5-4.7c0-0.6-0.4-1-1-1c0,0,0,0,0,0c-0.6,0-1,0.5-1,1
	c0,5-1.9,9.7-5.1,13.3l-7.6-7.6c0.8-1,1.3-2.1,1.7-3.3c0.6-2.3,0.3-4.7-0.9-6.8c-1.6-2.8-4.6-4.5-7.8-4.5c-1.6,0-3.1,0.4-4.5,1.2
	c-2.1,1.2-3.6,3.1-4.2,5.5c-0.6,2.3-0.3,4.7,0.9,6.8c0.2,0.4,0.5,0.8,0.8,1.1l-7.6,7.6c-0.9-1-1.7-2.1-2.4-3.3
	c-1.7-3-2.6-6.4-2.6-9.9c0-0.6-0.4-1-1-1c0,0,0,0,0,0c-0.5,0-1,0.4-1,1c0,1.6,0.2,3.2,0.5,4.7L14,42.3C13.5,42.4,13.2,43,13.3,43.5z
	 M37.5,46.1c1.6,0,3.1-0.4,4.5-1.2c0.4-0.2,0.8-0.5,1.1-0.8l7.6,7.6c-1,0.9-2.1,1.7-3.3,2.4c-7.6,4.4-16.9,3.1-23-2.4l7.6-7.6
	C33.4,45.3,35.4,46.1,37.5,46.1z M30.7,35.2c0.5-1.8,1.6-3.3,3.3-4.2c1.1-0.6,2.3-0.9,3.5-0.9c2.5,0,4.8,1.3,6.1,3.5
	c0.9,1.6,1.2,3.5,0.7,5.3s-1.6,3.3-3.3,4.2c-1.1,0.6-2.3,0.9-3.5,0.9c-2.5,0-4.8-1.3-6.1-3.5C30.5,38.9,30.2,37.1,30.7,35.2z"/>
<path class="st2" d="M40.5,18.6h2.2c0,0,0,0,0,0c0.1,1.7,0.6,3.4,1.3,5c0,0,0,0,0,0l-1.9,1.1c-0.5,0.3-0.6,0.9-0.4,1.4
	c0.3,0.5,0.9,0.6,1.4,0.4l1.9-1.1c0,0,0,0,0,0c1,1.5,2.3,2.7,3.7,3.7c0,0,0,0,0,0l-1.1,1.9c-0.3,0.5-0.1,1.1,0.4,1.4
	c0.5,0.3,1.1,0.1,1.4-0.4l1.1-1.9c0,0,0,0,0,0c1.6,0.8,3.3,1.2,5,1.3c0,0,0,0,0,0v2.2c0,0.6,0.4,1,1,1c0.6,0,1-0.4,1-1v-2.2
	c0,0,0,0,0,0c2-0.1,4-0.7,5.9-1.8c0.7-0.4,1.4-0.9,2-1.4c-0.8-3-2.2-5.8-3.9-8.3c-0.5,1-1.2,1.9-2.3,2.5c-2.6,1.5-6,0.6-7.5-2
	c-1.5-2.6-0.6-6,2-7.5c0.2-0.1,0.4-0.2,0.6-0.3c-2.5-1.8-5.2-3.2-8.2-4.1c-2,2.3-3.2,5.2-3.4,8.2c0,0,0,0,0,0h-2.2c-0.6,0-1,0.4-1,1
	S39.9,18.6,40.5,18.6z"/>
<path class="st3" d="M17.5,31.8C17.5,31.8,17.5,31.8,17.5,31.8l0,2.3c0,0.6,0.4,1,1,1s1-0.4,1-1v-2.2c0,0,0,0,0,0
	c1.7-0.1,3.4-0.6,5-1.3c0,0,0,0,0,0l1.1,1.9c0.3,0.5,0.9,0.6,1.4,0.4c0.5-0.3,0.6-0.9,0.4-1.4l-1.1-1.9c0,0,0,0,0,0
	c1.5-1,2.7-2.3,3.7-3.7c0,0,0,0,0,0l1.9,1.1c0.5,0.3,1.1,0.1,1.4-0.4c0.3-0.5,0.1-1.1-0.4-1.4l-1.9-1.1c0,0,0,0,0,0
	c0.8-1.6,1.2-3.3,1.3-5c0,0,0,0,0,0h2.2c0.6,0,1-0.4,1-1s-0.4-1-1-1h-2.2c0,0,0,0,0,0c-0.1-2-0.7-4-1.8-5.9c-0.6-1-1.3-1.9-2-2.7
	c-3,1-5.8,2.5-8.3,4.3c1.3,0.4,2.4,1.3,3.1,2.5c1.5,2.6,0.6,6-2,7.5s-6,0.6-7.5-2c-0.1-0.3-0.3-0.5-0.4-0.8c-1.7,2.6-3,5.4-3.8,8.5
	C11.7,30.4,14.6,31.6,17.5,31.8z"/>
<text transform="matrix(1 0 0 1 78.7469 55.396)"><tspan x="0" y="0" class="st3 st4 st5">Content</tspan><tspan x="158.9" y="0" class="st0 st4 st5">Aggregator</tspan><tspan x="383.1" y="0" class="st3 st4 st5">.com</tspan></text>
</svg>
